# xmcd CD database file
# Copyright (C) 1993-1998 Ti Kan
# 
# Track frame offsets:
#     150
#     9140
#     18107
#     30847
#     42685
#     52127
#     64677
#     74770
#     84570
#     95820
# 
# Disc length: 1411 seconds
# 
# Revision: 1
# Processed by: cddbd v1.4b41PL1 Copyright (c) Steve Scherf et al.
# Submitted via: DiscPlay 4.0.4
# 
DISCID=7f05810a
DTITLE=Floyd Cramer - Country Gold
DYEAR=1900
DGENRE=
TTITLE0=Hey, Good Looking
TTITLE1=San Antonio Rose
TTITLE2=Chattanooga Choo Choo
TTITLE3=Flip, Flop And Bop
TTITLE4=Arkansas Traveler
TTITLE5=Only The Lonely
TTITLE6=Walking The Floor Over You
TTITLE7=Louisiana Man
TTITLE8=Oh, Lonesome Me
TTITLE9=On The Rebound
EXTD=
EXTT0=
EXTT1=
EXTT2=
EXTT3=
EXTT4=
EXTT5=
EXTT6=
EXTT7=
EXTT8=
EXTT9=
PLAYORDER=
